<svg width="14" height="17" viewBox="0 0 14 17" fill="none" xmlns="http://www.w3.org/2000/svg">
<path d="M9.05627 14.7647C8.47445 15.5883 7.74783 16 6.87555 16C6.00326 16 5.27664 15.5883 4.69483 14.7647M11.3111 13.5294H2.43996C2.18511 13.5295 1.9348 13.4658 1.71461 13.3446C1.49442 13.2235 1.31225 13.0493 1.18672 12.8399C1.06118 12.6305 0.996792 12.3934 1.00012 12.1528C1.00345 11.9123 1.07439 11.6768 1.20567 11.4706C2.06176 10.1235 2.51402 8.58214 2.51411 7.01119V6.11767C2.51411 5.24401 2.88171 4.40614 3.53605 3.78837C4.1904 3.17061 5.07788 2.82355 6.00326 2.82355H7.74783C8.67321 2.82355 9.56069 3.17061 10.215 3.78837C10.8694 4.40614 11.237 5.24401 11.237 6.11767V7.01119C11.237 8.58167 11.6888 10.1241 12.5454 11.4706C12.6767 11.6768 12.7476 11.9123 12.751 12.1528C12.7543 12.3934 12.6899 12.6305 12.5644 12.8399C12.4388 13.0493 12.2567 13.2235 12.0365 13.3446C11.8163 13.4658 11.566 13.5295 11.3111 13.5294V13.5294Z" stroke="white" stroke-linecap="round" stroke-linejoin="round"/>
<ellipse cx="11.0622" cy="2.82353" rx="2.93777" ry="2.82353" fill="#FFE600"/>
</svg>
