<svg width="25" height="24" viewBox="0 0 25 24" fill="none" xmlns="http://www.w3.org/2000/svg">
<path d="M20.743 4.75698C23.005 7.02498 23.083 10.637 20.979 12.993L12.8529 21.1306C12.6575 21.3262 12.3405 21.3262 12.1452 21.1306L4.02101 12.993C1.91701 10.637 1.99601 7.01898 4.25701 4.75698C6.41409 2.60085 9.80286 2.42919 12.1559 4.24201C12.3581 4.39777 12.6438 4.39765 12.8459 4.24181C15.1935 2.43167 18.588 2.59821 20.743 4.75698ZM5.67201 6.17198C4.18201 7.66198 4.10701 10.047 5.48001 11.623L12.1462 18.2996C12.3415 18.4952 12.6585 18.4953 12.8538 18.2996L19.52 11.624C20.894 10.047 20.819 7.66498 19.327 6.16998C17.84 4.67998 15.446 4.60798 13.874 5.98398L10.0254 9.83347C9.83023 10.0287 9.51371 10.0288 9.31841 9.83363L8.61068 9.12641C8.41535 8.93122 8.41524 8.61463 8.61043 8.4193L11.0063 6.02179C11.047 5.98101 11.0441 5.91409 11 5.87698C9.42501 4.61198 7.12301 4.71998 5.67201 6.17198Z" fill="#A6A6A6"/>
</svg>
