<svg width="24" height="24" viewBox="0 0 24 24" fill="none" xmlns="http://www.w3.org/2000/svg">
<path fill-rule="evenodd" clip-rule="evenodd" d="M17.5 19C17.7761 19 18 18.7762 18 18.5V9.37821C18 9.23733 17.9406 9.10299 17.8363 9.00822L12.3363 4.00873C12.1456 3.83537 11.8544 3.83537 11.6637 4.00872L6.16368 9.00822C6.05943 9.10299 6 9.23733 6 9.37821V18.5C6 18.7762 6.22386 19 6.5 19H17.5ZM19 21H5C4.73478 21 4.48043 20.8947 4.29289 20.7071C4.10536 20.5196 4 20.2652 4 20V11.5C4 11.2239 3.77614 11 3.5 11H2.29332C1.8363 11 1.61882 10.4375 1.95699 10.13L11.327 1.61201C11.5111 1.44449 11.7511 1.35165 12 1.35165C12.2489 1.35165 12.4889 1.44449 12.673 1.61201L22.043 10.13C22.3812 10.4375 22.1637 11 21.7067 11H20.5C20.2239 11 20 11.2239 20 11.5V20C20 20.2652 19.8946 20.5196 19.7071 20.7071C19.5196 20.8947 19.2652 21 19 21Z" fill="#A6A6A6"/>
<path d="M8 14.5C8 14.2239 8.2254 13.9958 8.49771 14.0416C9.10873 14.1444 9.67742 14.4348 10.1213 14.8787C10.5652 15.3226 10.8556 15.8913 10.9584 16.5023C11.0043 16.7746 10.7761 17 10.5 17H8.5C8.22386 17 8 16.7762 8 16.5V14.5Z" fill="#A6A6A6"/>
<path d="M8 10.5C8 10.2239 8.22417 9.99815 8.49961 10.0178C10.1735 10.1376 11.7553 10.8558 12.9497 12.0503C14.1442 13.2448 14.8625 14.8265 14.9822 16.5004C15.0019 16.7758 14.7761 17 14.5 17H13.5C13.2239 17 13.0026 16.7756 12.975 16.5008C12.8604 15.3581 12.3548 14.2838 11.5355 13.4645C10.7163 12.6452 9.64194 12.1396 8.49919 12.025C8.22442 11.9974 8 11.7762 8 11.5V10.5Z" fill="#A6A6A6"/>
</svg>
