<svg width="25" height="24" viewBox="0 0 25 24" fill="none" xmlns="http://www.w3.org/2000/svg">
<path d="M12.5 22C6.977 22 2.5 17.523 2.5 12C2.5 6.477 6.977 2 12.5 2C18.023 2 22.5 6.477 22.5 12C22.5 17.523 18.023 22 12.5 22ZM12.5 20C14.6217 20 16.6566 19.1571 18.1569 17.6569C19.6571 16.1566 20.5 14.1217 20.5 12C20.5 9.87827 19.6571 7.84344 18.1569 6.34315C16.6566 4.84285 14.6217 4 12.5 4C10.3783 4 8.34344 4.84285 6.84315 6.34315C5.34285 7.84344 4.5 9.87827 4.5 12C4.5 14.1217 5.34285 16.1566 6.84315 17.6569C8.34344 19.1571 10.3783 20 12.5 20ZM7.52497 12.4992C7.49741 12.2244 7.72386 12 8 12H9C9.27614 12 9.49575 12.2254 9.54156 12.4977C9.64436 13.1087 9.93478 13.6774 10.3787 14.1213C10.9413 14.6839 11.7044 15 12.5 15C13.2956 15 14.0587 14.6839 14.6213 14.1213C15.0652 13.6774 15.3556 13.1087 15.4584 12.4977C15.5043 12.2254 15.7239 12 16 12H17C17.2761 12 17.5026 12.2244 17.475 12.4992C17.3604 13.6419 16.8548 14.7163 16.0355 15.5355C15.0979 16.4732 13.8261 17 12.5 17C11.1739 17 9.90215 16.4732 8.96447 15.5355C8.14519 14.7163 7.63959 13.6419 7.52497 12.4992Z" fill="#A6A6A6"/>
</svg>
